<?xml version="1.0" encoding="UTF-8" standalone="no"?>
<svg
   version="1.1"
   width="595.27557"
   height="841.88977"
   id="svg4"
   viewBox="0 0 595.27557 841.88977"
   sodipodi:docname="Buzzard logo.cdr"
   xmlns:inkscape="http://www.inkscape.org/namespaces/inkscape"
   xmlns:sodipodi="http://sodipodi.sourceforge.net/DTD/sodipodi-0.dtd"
   xmlns="http://www.w3.org/2000/svg"
   xmlns:svg="http://www.w3.org/2000/svg">
  <defs
     id="defs8" />
  <sodipodi:namedview
     id="namedview6"
     pagecolor="#ffffff"
     bordercolor="#ffffff"
     borderopacity="1.0"
     inkscape:pageshadow="2"
     inkscape:pageopacity="0.0"
     inkscape:pagecheckerboard="0" />
  <path
     d="m 227.1283,415.3425 h 6.9534 c 1.1847,0 2.1247,0.3476 2.82,1.0429 0.6954,0.6954 1.043,1.6354 1.043,2.8201 v 2.3178 c 0,1.0301 -0.3347,1.9315 -1.0043,2.7041 0.6696,0.7726 1.0043,1.674 1.0043,2.7041 v 38.6303 c 0,1.1847 -0.3476,2.1247 -1.043,2.82 -0.6953,0.6954 -1.6353,1.0431 -2.82,1.0431 h -6.9534 z m 25.677,-74.7712 h 90.7429 v 67.1967 h -2.9649 v -64.2318 h -86.2955 v 64.2318 h -2.965 v -67.1967 z m 90.7429,136.428 v 24.3492 h -92.2254 v -24.3492 h 2.965 v 21.3843 h 86.2955 v -21.3843 z m -24.3977,-112.657 -33.403,27.0645 v 2.8411 l 5.6159,-4.571 1.0713,1.3174 -8.3905,6.8295 v -7.2224 L 317.784,363.264 Z m -25.7229,23.7309 27.5018,-22.3273 1.3663,1.078 -27.7968,22.5669 z m 4.9328,7.7402 -3.0376,2.5819 -1.361,-1.0739 3.3006,-2.8055 z m 15.485,-17.2496 -14.8063,12.0877 5.5313,4.8289 -6.2156,5.3072 -1.3598,-1.0728 v -1e-4 l 4.9768,-4.2494 -5.5642,-4.8577 16.3666,-13.3613 z m -6.7292,9.0997 2.5049,2.0411 v 2.1823 l -0.004,0.005 -3.8667,-3.1506 z m -3.0656,2.4189 5.5705,4.5388 v 2.1904 l -6.9362,-5.6516 z m -21.9159,-12.8102 6.8491,5.5806 -1.3657,1.0776 -6.5546,-5.3407 z m -5.0974,-13.9528 18.0934,14.6832 -1.3663,1.0782 -18.0935,-14.6834 z m -3.0942,2.4414 18.0934,14.6833 -1.3662,1.078 -18.0935,-14.6833 z m 82.9833,103.6641 v -54.0824 h 6.9534 c 1.1847,0 2.1247,0.3476 2.82,1.0429 0.6953,0.6954 1.043,1.6354 1.043,2.8201 v 46.3563 c 0,1.1847 -0.3477,2.1247 -1.043,2.82 -0.6953,0.6954 -1.6353,1.0431 -2.82,1.0431 z m 6.9534,-2.3179 c 1.0301,0 1.5452,-0.515 1.5452,-1.5452 v -46.3563 c 0,-1.0302 -0.5151,-1.5453 -1.5452,-1.5453 h -4.6357 v 49.4468 z m -28.5865,-51.7645 h 6.9535 c 1.1846,0 2.1247,0.3476 2.82,1.0429 0.6953,0.6954 1.043,1.6354 1.043,2.8201 v 38.6303 c 0,1.1847 -0.3477,2.1247 -1.043,2.82 -0.6953,0.6954 -1.6354,1.043 -2.82,1.043 l 3.863,7.7261 h -2.7041 l -3.8631,-7.7261 h -1.9315 v 7.7261 h -2.3178 z m 6.9535,44.0385 c 1.0301,0 1.5452,-0.5151 1.5452,-1.5452 v -38.6303 c 0,-1.0302 -0.5151,-1.5453 -1.5452,-1.5453 h -4.6357 v 41.7208 z m -28.5865,10.0439 4.2493,-54.0824 h 2.3179 l 4.2493,54.0824 h -2.3179 l -0.618,-7.7261 h -4.9447 l -0.6181,7.7261 z m 7.7261,-10.0439 -2.3179,-28.5864 -2.3178,28.5864 z m -29.3591,10.0439 8.1123,-51.7647 h -8.1123 v -2.3177 h 10.8165 l -8.1124,51.7645 h 8.1124 v 2.3179 z m -21.633,0 8.1123,-51.7647 h -8.1123 v -2.3177 h 10.8165 l -8.1124,51.7645 h 8.1124 v 2.3179 z m -21.633,-3.8631 v -50.2193 h 2.3178 v 50.2193 c 0,1.0302 0.515,1.5452 1.5452,1.5452 h 3.0904 c 1.0301,0 1.5452,-0.515 1.5452,-1.5452 v -50.2193 h 2.3179 v 50.2193 c 0,1.1847 -0.3477,2.1247 -1.0431,2.82 -0.6953,0.6954 -1.6353,1.0431 -2.82,1.0431 h -3.0904 c -1.1846,0 -2.1247,-0.3477 -2.82,-1.0431 -0.6954,-0.6953 -1.043,-1.6353 -1.043,-2.82 z M 229.446,425.3863 v 41.7207 h 4.6357 c 1.0301,0 1.5452,-0.515 1.5452,-1.5452 v -38.6303 c 0,-1.0301 -0.5151,-1.5452 -1.5452,-1.5452 z m 0,-7.7261 v 5.4083 h 4.6357 c 1.0301,0 1.5452,-0.5151 1.5452,-1.5452 v -2.3178 c 0,-1.0302 -0.5151,-1.5453 -1.5452,-1.5453 z"
     style="fill:#ffffff;fill-rule:evenodd"
     id="path2" />
</svg>
